<?xml version="1.0" encoding="UTF-8"?>
<!DOCTYPE svg PUBLIC "-//W3C//DTD SVG 1.1//EN" "http://www.w3.org/Graphics/SVG/1.1/DTD/svg11.dtd">
<!-- Creator: CorelDRAW X6 -->
<svg xmlns="http://www.w3.org/2000/svg" xml:space="preserve" version="1.1" style="shape-rendering:geometricPrecision; text-rendering:geometricPrecision; image-rendering:optimizeQuality; fill-rule:evenodd; clip-rule:evenodd"
viewBox="0 0 21000 29700"
 xmlns:xlink="http://www.w3.org/1999/xlink">
 <defs>
  <style type="text/css">
   <![CDATA[
    .fil1 {fill:white}
    .fil2 {fill:white;fill-rule:nonzero}
    .fil0 {fill:white;fill-opacity:0.501961}
   ]]>
  </style>
 </defs>
 <g id="Layer_x0020_1">
  <metadata id="CorelCorpID_0Corel-Layer"/>
  <g id="svg_1">
   <g id="layer1" display="inline">
    <g id="svg_23">
     <g id="svg_18">
      <polygon class="fil0" points="6999,15453 7774,16312 7775,16389 7005,15536 6999,15453 "/>
      <polygon class="fil1" points="6999,15453 7774,16312 7775,16389 7005,15536 6999,15453 "/>
     </g>
     <g id="svg_19">
      <polygon class="fil0" points="6990,14645 7778,15463 7764,15522 6992,14718 "/>
      <polygon class="fil1" points="6990,14645 7778,15463 7764,15522 6992,14718 "/>
     </g>
     <g id="svg_21">
      <polygon class="fil0" points="6977,13040 7707,13800 7710,13881 6976,13111 "/>
      <polygon class="fil1" points="6977,13040 7707,13800 7710,13881 6976,13111 "/>
     </g>
     <g id="svg_22">
      <polygon class="fil0" points="6969,12266 7685,13043 7644,13076 6964,12336 6969,12266 "/>
      <polygon class="fil1" points="6969,12266 7685,13043 7644,13076 6964,12336 6969,12266 "/>
     </g>
    </g>
    <g id="text4495" display="inline">
     <path id="path4502" class="fil1" d="M9537 25124l-3 7 6 0 -3 -7m-1 -2l3 0 7 13 -2 0 -2 -3 -8 0 -2 3 -2 0 7 -13m0 0l0 0 0 0z"/>
     <polygon id="path4504" class="fil1" points="9547,25134 9550,25134 9550,25136 9547,25136 "/>
     <path id="path4506" class="fil1" d="M9562 25123l2 0 0 12c0,2 0,3 -1,4 -1,1 -2,1 -4,1l-1 0 0 -2 1 0c1,0 2,0 2,-1 0,0 1,-1 1,-2l0 -12m0 0l0 0 0 0z"/>
     <path id="path4508" class="fil1" d="M9574 25124l-3 7 6 0 -3 -7m-1 -2l3 0 7 13 -2 0 -2 -3 -8 0 -2 3 -2 0 7 -13m0 0l0 0 0 0z"/>
     <path id="path4510" class="fil1" d="M9587 25130l0 5 4 0c1,0 2,0 3,-1 1,0 1,-1 1,-2 0,-1 0,-1 -1,-2 -1,0 -2,-1 -3,-1l-4 0m0 -6l0 4 3 0c1,0 2,0 3,0 1,0 1,-1 1,-2 0,-1 0,-1 -1,-2 -1,0 -1,-1 -3,-1l-3 0m-2 -1l6 0c2,0 3,0 4,1 1,1 1,1 1,2 0,1 0,1 -1,2 0,0 -1,1 -2,1 1,0 2,1 3,1 1,1 1,1 1,2 0,1 -1,2 -2,3 -1,1 -3,1 -5,1l-6 0 0 -13m0 0l0 0 0 0z"/>
     <path id="path4512" class="fil1" d="M9608 25124c-2,0 -3,0 -4,1 -1,1 -2,2 -2,4 0,2 1,3 2,4 1,1 2,1 4,1 2,0 3,0 4,-1 1,-1 2,-2 2,-4 0,-2 -1,-3 -2,-4 -1,-1 -2,-1 -4,-1m0 -1c2,0 4,1 6,2 1,1 2,3 2,5 0,2 -1,4 -2,5 -1,1 -3,2 -6,2 -2,0 -4,-1 -6,-2 -1,-1 -2,-3 -2,-5 0,-2 1,-4 2,-5 1,-1 3,-2 6,-2z"/>
     <path id="path4514" class="fil1" d="M9628 25130c1,0 1,0 1,1 0,0 1,1 1,2l2 4 -3 0 -2 -3c-1,-1 -1,-1 -2,-2 -1,0 -1,0 -2,0l-3 0 0 6 -2 0 0 -13 5 0c2,0 3,0 4,1 1,1 1,2 1,3 0,1 0,2 -1,2 -1,1 -1,1 -2,1m-6 -6l0 5 3 0c1,0 2,0 3,-1 1,0 1,-1 1,-2 0,-1 0,-1 -1,-2 -1,0 -1,-1 -3,-1l-3 0z"/>
     <path id="path4516" class="fil1" d="M9647 25123l0 2c-1,0 -2,-1 -3,-1 -1,0 -2,0 -2,0 -1,0 -2,0 -3,1 -1,0 -1,1 -1,2 0,1 0,1 1,1 0,0 1,1 3,1l1 0c2,0 3,1 4,1 1,1 1,2 1,3 0,1 -1,2 -2,3 -1,1 -3,1 -5,1 -1,0 -2,0 -3,0 -1,0 -2,0 -3,-1l0 -2c1,0 2,1 3,1 1,0 2,0 3,0 1,0 2,0 3,-1 1,0 1,-1 1,-2 0,-1 0,-1 -1,-2 -1,0 -1,-1 -3,-1l-1 0c-2,0 -3,-1 -4,-1 -1,-1 -1,-1 -1,-2 0,-1 1,-2 2,-3 1,-1 3,-1 4,-1 1,0 2,0 2,0 1,0 2,0 3,1m0 0l0 0 0 0z"/>
     <path id="path4518" class="fil1" d="M9651 25123l2 0 0 6 8 -6 3 0 -9 6 9 7 -3 0 -8 -6 0 6 -2 0 0 -13m0 0l0 0 0 0z"/>
     <path id="path4520" class="fil1" d="M9672 25124l-3 7 6 0 -3 -7m-1 -2l3 0 7 13 -2 0 -2 -3 -8 0 -2 3 -2 0 7 -13m0 0l0 0 0 0z"/>
    </g>
    <g id="path5031">
     <polygon class="fil0" points="6994,25136 6685,25139 6418,25175 6125,25235 5838,25302 5507,25410 5136,25592 4830,25779 4420,26075 4257,26389 4374,26509 4511,26359 4785,26142 4993,25984 5266,25834 5520,25706 6066,25501 6607,25423 6970,25401 6970,25410 7332,25423 7872,25501 8419,25706 8673,25834 8946,25984 9154,26142 9428,26359 9564,26509 9682,26389 9519,26075 9109,25779 8803,25592 8432,25410 8100,25302 7814,25235 7521,25175 7254,25139 6994,25139 6994,25136 "/>
     <polygon class="fil1" points="6994,25136 6685,25139 6418,25175 6125,25235 5838,25302 5507,25410 5136,25592 4830,25779 4420,26075 4257,26389 4374,26509 4511,26359 4785,26142 4993,25984 5266,25834 5520,25706 6066,25501 6607,25423 6970,25401 6970,25410 7332,25423 7872,25501 8419,25706 8673,25834 8946,25984 9154,26142 9428,26359 9564,26509 9682,26389 9519,26075 9109,25779 8803,25592 8432,25410 8100,25302 7814,25235 7521,25175 7254,25139 6994,25139 6994,25136 "/>
    </g>
    <g id="path3991">
     <polygon class="fil0" points="11247,28171 9256,24507 9347,24513 11331,28174 "/>
     <polygon class="fil1" points="11247,28171 9256,24507 9347,24513 11331,28174 "/>
    </g>
    <g id="path4003">
     <polygon class="fil0" points="9658,26291 9658,26425 10991,26425 10991,26291 "/>
     <polygon class="fil1" points="9658,26291 9658,26425 10991,26425 10991,26291 "/>
    </g>
    <g id="path4009">
     <polygon class="fil0" points="8901,24893 8901,25027 10233,25027 10233,24893 "/>
     <polygon class="fil1" points="8901,24893 8901,25027 10233,25027 10233,24893 "/>
    </g>
    <g id="path4011">
     <polygon class="fil0" points="9153,25359 9153,25493 10486,25493 10486,25359 "/>
     <polygon class="fil1" points="9153,25359 9153,25493 10486,25493 10486,25359 "/>
    </g>
    <g id="path4035">
     <polygon class="fil0" points="9406,25825 9406,25959 10738,25959 10738,25825 "/>
     <polygon class="fil1" points="9406,25825 9406,25959 10738,25959 10738,25825 "/>
    </g>
    <g id="path4046">
     <polygon class="fil0" points="9911,26757 9911,26891 11243,26891 11243,26757 "/>
     <polygon class="fil1" points="9911,26757 9911,26891 11243,26891 11243,26757 "/>
    </g>
    <g id="path4048">
     <polygon class="fil0" points="10148,27223 10148,27357 11481,27357 11481,27223 "/>
     <polygon class="fil1" points="10148,27223 10148,27357 11481,27357 11481,27223 "/>
    </g>
    <g id="path4050">
     <polygon class="fil0" points="10380,27689 10380,27823 11713,27823 11713,27689 "/>
     <polygon class="fil1" points="10380,27689 10380,27823 11713,27823 11713,27689 "/>
    </g>
    <g id="path4052">
     <polygon class="fil0" points="10928,26338 10111,27252 10222,27337 11038,26424 10928,26338 "/>
     <polygon class="fil1" points="10928,26338 10111,27252 10222,27337 11038,26424 10928,26338 "/>
    </g>
    <g id="path4058">
     <polygon class="fil0" points="11433,27270 10616,28184 10727,28269 11544,27356 "/>
     <polygon class="fil1" points="11433,27270 10616,28184 10727,28269 11544,27356 "/>
    </g>
    <g id="path4060">
     <polygon class="fil0" points="10423,25406 9606,26320 9717,26405 10533,25492 10423,25406 "/>
     <polygon class="fil1" points="10423,25406 9606,26320 9717,26405 10533,25492 10423,25406 "/>
    </g>
    <g id="path4062">
     <polygon class="fil0" points="9918,24474 9101,25388 9211,25473 10028,24560 9918,24474 "/>
     <polygon class="fil1" points="9918,24474 9101,25388 9211,25473 10028,24560 9918,24474 "/>
    </g>
    <g id="path4064">
     <polygon class="fil0" points="10166,27255 10137,27391 11976,28305 11900,28125 "/>
     <polygon class="fil1" points="10166,27255 10137,27391 11976,28305 11900,28125 "/>
    </g>
    <g id="path4070">
     <polygon class="fil0" points="9661,26323 9632,26459 11471,27374 11395,27193 "/>
     <polygon class="fil1" points="9661,26323 9632,26459 11471,27374 11395,27193 "/>
    </g>
    <g id="path4072">
     <polygon class="fil0" points="9156,25391 9127,25527 10966,26442 10890,26261 9156,25391 "/>
     <polygon class="fil1" points="9156,25391 9127,25527 10966,26442 10890,26261 9156,25391 "/>
    </g>
    <g id="path4074">
     <polygon class="fil0" points="8651,24459 8622,24595 10461,25510 10385,25330 "/>
     <polygon class="fil1" points="8651,24459 8622,24595 10461,25510 10385,25330 "/>
    </g>
    <g id="rect4351">
     <polygon class="fil0" points="7982,22118 9146,22122 9180,22248 7999,22248 "/>
     <polygon class="fil1" points="7982,22118 9146,22122 9180,22248 7999,22248 "/>
    </g>
    <g id="path4355">
     <polygon class="fil0" points="8164,23051 9467,23055 9501,23180 8180,23180 8164,23051 "/>
     <polygon class="fil1" points="8164,23051 9467,23055 9501,23180 8180,23180 8164,23051 "/>
    </g>
    <g id="path4371">
     <polygon class="fil0" points="7738,20365 8886,21177 8917,21285 8842,21284 7704,20494 7672,20363 7738,20365 7738,20365 "/>
     <polygon class="fil1" points="7738,20365 8886,21177 8917,21285 8842,21284 7704,20494 7672,20363 7738,20365 7738,20365 "/>
    </g>
    <g id="path4357">
     <polygon class="fil0" points="7796,21162 8885,21162 8920,21287 7812,21291 7796,21162 "/>
     <polygon class="fil1" points="7796,21162 8885,21162 8920,21287 7812,21291 7796,21162 "/>
    </g>
    <g id="path4359">
     <polygon class="fil0" points="8165,20338 8095,20353 8297,21235 8297,21236 8531,22192 8532,22192 8532,22193 8792,23130 8792,23131 8793,23131 9088,24038 9157,24019 8862,23114 8861,23112 8601,22177 8601,22177 8366,21221 8165,20338 8165,20338 "/>
     <polygon class="fil1" points="8165,20338 8095,20353 8297,21235 8297,21236 8531,22192 8532,22192 8532,22193 8792,23130 8792,23131 8793,23131 9088,24038 9157,24019 8862,23114 8861,23112 8601,22177 8601,22177 8366,21221 8165,20338 8165,20338 "/>
    </g>
    <g id="path4365">
     <polygon class="fil0" points="8594,20359 7800,21151 7829,21288 8688,20432 8664,20365 8594,20359 "/>
     <polygon class="fil1" points="8594,20359 7800,21151 7829,21288 8688,20432 8664,20365 8594,20359 "/>
    </g>
    <g id="path4373">
     <polygon class="fil0" points="8894,21175 7972,22106 7999,22251 8932,21310 8908,21244 8894,21175 "/>
     <polygon class="fil1" points="8894,21175 7972,22106 7999,22251 8932,21310 8908,21244 8894,21175 "/>
    </g>
    <g id="path4375">
     <polygon class="fil0" points="7805,21166 9139,22125 9178,22245 9142,22249 7862,21360 7830,21228 7896,21231 7896,21231 7805,21166 "/>
     <polygon class="fil1" points="7805,21166 9139,22125 9178,22245 9142,22249 7862,21360 7830,21228 7896,21231 7896,21231 7805,21166 "/>
    </g>
    <g id="path4377">
     <polygon class="fil0" points="7981,22126 9473,23085 9517,23174 9408,23178 8004,22294 7983,22163 7981,22126 7981,22126 "/>
     <polygon class="fil1" points="7981,22126 9473,23085 9517,23174 9408,23178 8004,22294 7983,22163 7981,22126 7981,22126 "/>
    </g>
    <g id="path4379">
     <polygon class="fil0" points="9126,22125 8164,23082 8197,23211 9164,22260 9140,22193 9126,22125 "/>
     <polygon class="fil1" points="9126,22125 8164,23082 8197,23211 9164,22260 9140,22193 9126,22125 "/>
    </g>
    <g id="path4381">
     <polygon class="fil0" points="9465,23032 8418,23921 8486,24035 9503,23168 9479,23101 9465,23032 "/>
     <polygon class="fil1" points="9465,23033 8418,23921 8486,24035 9503,23168 9479,23101 9465,23032 "/>
    </g>
    <g id="path4383">
     <polygon class="fil0" points="8167,23029 9801,23930 9828,24030 9702,24028 8190,23197 8170,23065 8167,23029 8167,23029 8167,23029 "/>
     <polygon class="fil1" points="8167,23029 9801,23930 9828,24030 9702,24028 8190,23197 8170,23065 8167,23029 8167,23029 8167,23029 "/>
    </g>
    <g id="path2971">
     <polygon class="fil0" points="8089,20093 8164,20090 8057,19566 7990,19562 8089,20093 "/>
     <polygon class="fil1" points="8089,20093 8164,20090 8057,19566 7990,19562 8089,20093 "/>
    </g>
    <g id="path3756">
     <polygon class="fil0" points="6934,20100 7008,20097 7008,19539 6934,19536 6934,20100 6934,20100 "/>
     <polygon class="fil1" points="6934,20100 7008,20097 7008,19539 6934,19536 6934,20100 6934,20100 "/>
    </g>
    <g id="path3758">
     <path class="fil0" d="M7494 19520l-561 576 84 19 530 -551 -54 -44 0 0zm483 17l-380 548 60 36 380 -548 -60 -36 0 0zm436 9l-310 556 82 -1 291 -524 -64 -31z"/>
     <path class="fil1" d="M7494 19520l-561 576 84 19 530 -551 -54 -44 0 0zm483 17l-380 548 60 36 380 -548 -60 -36 0 0zm436 9l-310 556 82 -1 291 -524 -64 -31z"/>
    </g>
    <g id="path3769">
     <path class="fil0" d="M7026 19522l-81 17 621 568 50 -47 -590 -538zm1046 11l-53 46 541 534 52 -46 -540 -534zm-491 3l-52 46 562 544 52 -46 -562 -544z"/>
     <path class="fil1" d="M7026 19522l-81 17 621 568 50 -47 -590 -538zm1046 11l-53 46 541 534 52 -46 -540 -534zm-491 3l-52 46 562 544 52 -46 -562 -544z"/>
    </g>
    <g id="path3823">
     <path class="fil0" d="M6969 12974l-736 1 0 67 736 -1 0 -67zm1 0l0 67 736 1 0 -67 -736 -1zm-39 840l-762 2 0 67 762 -2 0 -67zm76 0l0 67 762 2 0 -67 -762 -2zm-896 824l0 67 779 0 0 -67 -779 0zm936 0l0 67 779 0 0 -67 -779 0zm-1000 875l0 67 605 2 0 2 316 -1 317 1 0 -2 605 -2 0 -67 -922 2 -921 -2 0 0zm-78 882l0 67 705 0 589 0 705 0 0 -67 -705 0 -589 0 -705 0zm-107 896l0 67 804 0 604 0 804 0 0 -67 -804 0 -604 0 -804 0zm-132 895l0 67 862 0 752 0 862 0 0 -67 -862 0 -752 0 -862 0z"/>
     <path class="fil1" d="M6969 12974l-736 1 0 67 736 -1 0 -67zm1 0l0 67 736 1 0 -67 -736 -1zm-39 840l-762 2 0 67 762 -2 0 -67zm76 0l0 67 762 2 0 -67 -762 -2zm-896 824l0 67 779 0 0 -67 -779 0zm936 0l0 67 779 0 0 -67 -779 0zm-1000 875l0 67 605 2 0 2 316 -1 317 1 0 -2 605 -2 0 -67 -922 2 -921 -2 0 0zm-78 882l0 67 705 0 589 0 705 0 0 -67 -705 0 -589 0 -705 0zm-107 896l0 67 804 0 604 0 804 0 0 -67 -804 0 -604 0 -804 0zm-132 895l0 67 862 0 752 0 862 0 0 -67 -862 0 -752 0 -862 0z"/>
    </g>
    <g id="path3842">
     <path class="fil0" d="M6970 7059l0 53 445 2 0 -53 -445 -3zm456 540l-456 1 0 53 456 -1 0 -53zm-456 552l0 53 483 0 0 -53 -483 0zm0 597l0 53 505 0 0 -53 -505 0zm0 616l0 53 548 1 0 -53 -548 -1 0 0zm0 621l0 53 572 3 1 -53 -573 -3 0 0zm0 672l0 53 612 5 0 -53 -612 -5zm658 741l-658 1 0 53 658 -1 0 -53zm-658 776l0 53 693 3 0 -53 -693 -3z"/>
     <path class="fil1" d="M6970 7059l0 53 445 3 0 -53 -445 -3zm456 540l-456 1 0 53 456 -1 0 -53zm-456 552l0 53 483 0 0 -53 -483 0zm0 597l0 53 505 0 0 -53 -505 0zm0 616l0 53 548 1 0 -53 -548 -1 0 0zm0 621l0 53 572 3 1 -53 -573 -3 0 0zm0 672l0 53 612 5 0 -53 -612 -5zm658 741l-658 1 0 53 658 -1 0 -53zm-658 776l0 53 693 3 0 -53 -693 -3z"/>
    </g>
    <g id="path4392">
     <polygon class="fil0" points="8200,18184 7417,19066 7461,19100 8229,18237 8200,18184 "/>
     <polygon class="fil1" points="8200,18184 7417,19066 7461,19100 8229,18237 8200,18184 "/>
    </g>
    <g id="path4394">
     <polygon class="fil0" points="8053,17308 7313,18188 7312,18190 6467,19069 6510,19104 7356,18224 7356,18223 7357,18222 8098,17340 8053,17308 8053,17308 "/>
     <polygon class="fil1" points="8053,17308 7313,18188 7312,18190 6467,19069 6510,19104 7356,18224 7356,18223 7357,18222 8098,17340 8053,17308 8053,17308 "/>
    </g>
    <g id="path4396">
     <polygon class="fil0" points="6915,13861 7806,14555 7829,14631 6945,13939 6915,13861 6915,13861 "/>
     <polygon class="fil1" points="6915,13861 7806,14555 7829,14631 6945,13939 6915,13861 6915,13861 "/>
    </g>
    <g id="path4398">
     <polygon class="fil0" points="7896,15487 7124,16413 7144,16475 7900,15565 7896,15487 "/>
     <polygon class="fil1" points="7896,15487 7124,16413 7144,16475 7900,15565 7896,15487 "/>
    </g>
    <g id="path4400">
     <polygon class="fil0" points="7827,14612 7079,15527 7085,15611 7833,14694 "/>
     <polygon class="fil1" points="7827,14612 7079,15527 7085,15611 7833,14694 "/>
    </g>
    <g id="path4402">
     <polygon class="fil0" points="7761,13796 7046,14655 7051,14741 7769,13871 7761,13796 "/>
     <polygon class="fil1" points="7761,13796 7046,14655 7051,14741 7769,13871 7761,13796 "/>
    </g>
    <g id="path4404">
     <polygon class="fil0" points="7698,12949 7000,13825 7047,13857 7710,13023 7698,12949 "/>
     <polygon class="fil1" points="7698,12949 7000,13825 7047,13857 7710,13023 7698,12949 "/>
    </g>
    <g id="path4406">
     <polygon class="fil0" points="7649,12146 6974,12984 7020,13016 7657,12224 7649,12146 "/>
     <polygon class="fil1" points="7649,12146 6974,12984 7020,13016 7657,12224 7649,12146 "/>
    </g>
    <g id="path4412">
     <polygon class="fil0" points="7106,16414 6706,17304 6770,17315 7155,16443 "/>
     <polygon class="fil1" points="7106,16414 6706,17304 6770,17315 7155,16443 "/>
    </g>
    <g id="path4551">
     <path class="fil0" d="M7380 6575l-429 505 38 28 429 -505 -38 -28 0 0zm8 500l-438 538 39 27 437 -538 -39 -27 0 0zm23 535l-460 556 39 27 460 -556 -39 -27zm20 558l-472 592 39 27 472 -591 -39 -27zm32 591l-509 621 39 27 509 -621 -39 -27zm30 612l-544 626 38 28 544 -626 -38 -28zm25 629l-567 674 39 28 567 -675 -39 -27zm40 663l-608 750 39 27 608 -750 -39 -27zm9 65l-668 801 39 27 668 -801 -39 -27z"/>
     <path class="fil1" d="M7380 6575l-429 505 38 28 429 -505 -38 -28 0 0zm8 500l-438 538 39 27 437 -538 -39 -27 0 0zm23 535l-460 556 39 27 460 -556 -39 -27zm20 558l-472 592 39 27 472 -591 -39 -27zm32 591l-509 621 39 27 509 -621 -39 -27zm30 612l-544 626 38 28 544 -626 -38 -28zm25 629l-567 674 39 28 567 -675 -39 -27zm40 663l-608 750 39 27 608 -750 -39 -27zm9 65l-668 801 39 27 668 -801 -39 -27z"/>
    </g>
    <g id="path4574">
     <path class="fil0" d="M6980 6569l-38 28 449 518 39 -28 -450 -518zm-2 497l-39 28 469 542 38 -28 -468 -542zm-3 549l-37 29 508 561 11 -60 -482 -530 0 0zm13 552l-38 28 515 590 38 -28 -515 -590zm-6 596l-38 29 551 617 38 -28 -551 -617zm0 609l-37 29 586 637 37 -30 -586 -637 0 0zm3 620l-38 28 615 684 37 -29 -614 -683 0 0zm4 677l-38 28 657 753 38 -28 -657 -753 0 0zm-4 737l-38 29 696 784 38 -28 -696 -785 0 0z"/>
     <path class="fil1" d="M6980 6569l-38 28 449 518 39 -28 -450 -518zm-2 497l-39 28 469 542 38 -28 -468 -542zm-3 549l-37 29 508 561 11 -60 -482 -530 0 0zm13 552l-38 28 515 590 38 -28 -515 -590zm-6 596l-38 29 551 617 38 -28 -551 -617zm0 609l-37 29 586 637 37 -30 -586 -637 0 0zm3 620l-38 28 615 684 37 -29 -614 -683 0 0zm4 677l-38 28 657 753 38 -28 -657 -753 0 0zm-4 737l-38 29 696 784 38 -28 -696 -785 0 0z"/>
    </g>
    <polygon id="rect4624" class="fil0" points="6965,6588 7397,6588 7397,6413 6965,6413 "/>
    <polygon id="rect4639" class="fil0" points="6969,6398 7386,6398 7386,5738 6969,5738 "/>
    <g id="g4641" display="inline">
     <path id="path4643" class="fil1" d="M4401 25124l3 7 -6 0 3 -7m1 -2l-3 0 -7 13 2 0 2 -3 8 0 2 3 2 0 -7 -13z"/>
     <polygon id="path4645" class="fil1" points="4390,25134 4388,25134 4388,25136 4390,25136 "/>
     <path id="path4647" class="fil1" d="M4375 25123l-2 0 0 12c0,2 0,3 1,4 1,1 2,1 4,1l1 0 0 -2 -1 0c-1,0 -2,0 -2,-1 0,0 -1,-1 -1,-2l0 -12z"/>
     <path id="path4649" class="fil1" d="M4363 25124l3 7 -6 0 3 -7m1 -2l-3 0 -7 13 2 0 2 -3 8 0 2 3 2 0 -7 -13m0 0l0 0 0 0z"/>
     <path id="path4651" class="fil1" d="M4350 25130l0 5 -4 0c-1,0 -2,0 -3,-1 -1,0 -1,-1 -1,-2 0,-1 0,-1 1,-2 1,0 2,-1 3,-1l4 0m0 -6l0 4 -3 0c-1,0 -2,0 -3,0 -1,0 -1,-1 -1,-2 0,-1 0,-1 1,-2 1,0 1,-1 3,-1l3 0m2 -1l-6 0c-2,0 -3,0 -4,1 -1,1 -1,1 -1,2 0,1 0,1 1,2 1,0 1,1 2,1 -1,0 -2,1 -3,1 -1,1 -1,1 -1,2 0,1 1,2 2,3 1,1 3,1 5,1l6 0 0 -13m0 0l0 0 0 0z"/>
     <path id="path4653" class="fil1" d="M4330 25124c2,0 3,0 4,1 1,1 2,2 2,4 0,2 -1,3 -2,4 -1,1 -2,1 -4,1 -2,0 -3,0 -4,-1 -1,-1 -1,-2 -1,-4 0,-2 1,-3 1,-4 1,-1 2,-1 4,-1m0 -1c-2,0 -4,1 -6,2 -1,1 -2,3 -2,5 0,2 1,4 2,5 1,1 3,2 6,2 2,0 4,-1 6,-2 1,-1 2,-3 2,-5 0,-2 -1,-4 -2,-5 -1,-1 -3,-2 -6,-2z"/>
     <path id="path4655" class="fil1" d="M4310 25130c-1,0 -1,0 -1,1 0,0 -1,1 -1,2l-2 4 3 0 2 -3c1,-1 1,-1 2,-2 1,0 1,0 2,0l3 0 0 6 2 0 0 -13 -5 0c-2,0 -3,0 -4,1 -1,1 -1,2 -1,3 0,1 0,2 1,2 1,1 1,1 2,1m6 -6l0 5 -3 0c-1,0 -2,0 -3,-1 -1,0 -1,-1 -1,-2 0,-1 0,-1 1,-2 1,0 1,-1 3,-1l3 0m0 0l0 0 0 0z"/>
     <path id="path4657" class="fil1" d="M4291 25123l0 2c1,0 2,-1 3,-1 1,0 2,0 2,0 1,0 2,0 3,1 1,0 1,1 1,2 0,1 0,1 -1,1 0,0 -1,1 -3,1l-1 0c-2,0 -3,1 -4,1 -1,1 -1,2 -1,3 0,1 1,2 2,3 1,1 3,1 5,1 1,0 2,0 3,0 1,0 2,0 3,-1l0 -2c-1,0 -2,1 -3,1 -1,0 -2,0 -3,0 -1,0 -2,0 -3,-1 -1,0 -1,-1 -1,-2 0,-1 0,-1 1,-2 1,0 1,-1 3,-1l1 0c2,0 3,-1 4,-1 1,-1 1,-1 1,-2 0,-1 -1,-2 -2,-3 -1,-1 -3,-1 -4,-1 -1,0 -2,0 -2,0 -1,0 -2,0 -3,1m0 0l0 0 0 0z"/>
     <path id="path4659" class="fil1" d="M4286 25123l-2 0 0 6 -8 -6 -3 0 9 6 -9 7 3 0 8 -6 0 6 2 0 0 -13m0 0l0 0 0 0z"/>
     <path id="path4661" class="fil1" d="M4265 25124l3 7 -6 0 3 -7m1 -2l-3 0 -7 13 2 0 2 -3 8 0 2 3 2 0 -7 -13z"/>
    </g>
    <g id="path4665">
     <polygon class="fil0" points="2692,28171 4683,24507 4592,24513 2607,28174 "/>
     <polygon class="fil1" points="2692,28171 4683,24507 4592,24513 2607,28174 "/>
    </g>
    <g id="path4667">
     <polygon class="fil0" points="4280,26291 4280,26425 2948,26425 2948,26291 "/>
     <polygon class="fil1" points="4280,26291 4280,26425 2948,26425 2948,26291 "/>
    </g>
    <g id="path4669">
     <polygon class="fil0" points="5038,24893 5038,25027 3706,25027 3706,24893 "/>
     <polygon class="fil1" points="5038,24893 5038,25027 3706,25027 3706,24893 "/>
    </g>
    <g id="path4671">
     <polygon class="fil0" points="4786,25359 4786,25493 3453,25493 3453,25359 "/>
     <polygon class="fil1" points="4786,25359 4786,25493 3453,25493 3453,25359 "/>
    </g>
    <g id="path4673">
     <polygon class="fil0" points="4533,25825 4533,25959 3200,25959 3200,25825 "/>
     <polygon class="fil1" points="4533,25825 4533,25959 3200,25959 3200,25825 "/>
    </g>
    <g id="path4675">
     <polygon class="fil0" points="4028,26757 4028,26891 2695,26891 2695,26757 "/>
     <polygon class="fil1" points="4028,26757 4028,26891 2695,26891 2695,26757 "/>
    </g>
    <g id="path4677">
     <polygon class="fil0" points="3791,27223 3791,27357 2458,27357 2458,27223 "/>
     <polygon class="fil1" points="3791,27223 3791,27357 2458,27357 2458,27223 "/>
    </g>
    <g id="path4679">
     <polygon class="fil0" points="3558,27689 3558,27823 2226,27823 2226,27689 "/>
     <polygon class="fil1" points="3558,27689 3558,27823 2226,27823 2226,27689 "/>
    </g>
    <g id="path4681">
     <polygon class="fil0" points="3011,26338 3828,27252 3717,27337 2900,26424 3011,26338 "/>
     <polygon class="fil1" points="3011,26338 3828,27252 3717,27337 2900,26424 3011,26338 "/>
    </g>
    <g id="path4683">
     <polygon class="fil0" points="2506,27270 3323,28184 3212,28269 2395,27356 "/>
     <polygon class="fil1" points="2506,27270 3323,28184 3212,28269 2395,27356 "/>
    </g>
    <g id="path4685">
     <polygon class="fil0" points="3516,25406 4333,26320 4222,26405 3405,25492 3516,25406 "/>
     <polygon class="fil1" points="3516,25406 4333,26320 4222,26405 3405,25492 3516,25406 "/>
    </g>
    <g id="path4687">
     <polygon class="fil0" points="4021,24474 4838,25388 4727,25473 3910,24560 4021,24474 "/>
     <polygon class="fil1" points="4021,24474 4838,25388 4727,25473 3911,24560 4021,24474 "/>
    </g>
    <g id="path4689">
     <polygon class="fil0" points="3773,27255 3802,27391 1963,28305 2039,28125 3773,27255 "/>
     <polygon class="fil1" points="3773,27255 3802,27391 1963,28305 2039,28125 3773,27255 "/>
    </g>
    <g id="path4691">
     <polygon class="fil0" points="4278,26323 4307,26459 2468,27374 2544,27193 "/>
     <polygon class="fil1" points="4278,26323 4307,26459 2468,27374 2544,27193 "/>
    </g>
    <g id="path4693">
     <polygon class="fil0" points="4783,25391 4812,25527 2973,26442 3049,26261 4783,25391 "/>
     <polygon class="fil1" points="4783,25391 4812,25527 2973,26442 3049,26261 4783,25391 "/>
    </g>
    <g id="path4695">
     <polygon class="fil0" points="5288,24459 5317,24595 3478,25510 3554,25330 5288,24459 "/>
     <polygon class="fil1" points="5288,24459 5317,24595 3478,25510 3554,25330 5288,24459 "/>
    </g>
    <g id="path4697">
     <polygon class="fil0" points="5957,22118 4793,22122 4758,22248 5940,22248 5957,22118 "/>
     <polygon class="fil1" points="5957,22118 4793,22122 4758,22248 5940,22248 5957,22118 "/>
    </g>
    <g id="path4699">
     <polygon class="fil0" points="5775,23051 4472,23055 4437,23180 5759,23180 5775,23051 "/>
     <polygon class="fil1" points="5775,23051 4472,23055 4437,23180 5759,23180 5775,23051 "/>
    </g>
    <g id="path4701">
     <polygon class="fil0" points="6201,20365 5053,21177 5022,21285 5097,21284 6235,20494 6267,20363 6201,20365 6201,20365 "/>
     <polygon class="fil1" points="6201,20365 5053,21177 5022,21285 5097,21284 6235,20494 6267,20363 6201,20365 6201,20365 "/>
    </g>
    <g id="path4703">
     <polygon class="fil0" points="6143,21162 5054,21162 5019,21287 6126,21291 "/>
     <polygon class="fil1" points="6143,21162 5054,21162 5019,21287 6126,21291 "/>
    </g>
    <g id="path4705">
     <polygon class="fil0" points="5774,20338 5844,20353 5642,21235 5642,21236 5407,22192 5407,22192 5407,22193 5146,23130 5146,23131 5146,23131 4851,24038 4781,24019 5077,23114 5077,23112 5337,22177 5337,22177 5572,21221 5774,20338 5774,20338 "/>
     <polygon class="fil1" points="5774,20338 5844,20353 5642,21235 5642,21236 5407,22192 5407,22192 5407,22193 5146,23130 5146,23131 5146,23131 4851,24038 4781,24019 5077,23114 5077,23112 5337,22177 5337,22177 5572,21221 5774,20338 5774,20338 "/>
    </g>
    <g id="path4707">
     <polygon class="fil0" points="5345,20359 6139,21151 6109,21288 5251,20432 5275,20365 5345,20359 "/>
     <polygon class="fil1" points="5345,20359 6139,21151 6109,21288 5251,20432 5275,20365 5345,20359 "/>
    </g>
    <g id="path4709">
     <polygon class="fil0" points="5045,21175 5967,22106 5940,22251 5007,21310 5031,21244 5045,21175 "/>
     <polygon class="fil1" points="5045,21175 5967,22106 5940,22251 5007,21310 5031,21244 5045,21175 "/>
    </g>
    <g id="path4711">
     <polygon class="fil0" points="6134,21166 4800,22125 4761,22245 4797,22249 6077,21360 6109,21228 6043,21231 6043,21231 6134,21166 "/>
     <polygon class="fil1" points="6134,21166 4800,22125 4761,22245 4797,22249 6077,21360 6109,21228 6043,21231 6043,21231 6134,21166 "/>
    </g>
    <g id="path4713">
     <polygon class="fil0" points="5958,22126 4466,23085 4422,23174 4531,23178 5935,22294 5956,22163 5958,22126 5958,22126 "/>
     <polygon class="fil1" points="5958,22126 4466,23085 4422,23174 4531,23178 5935,22294 5956,22163 5958,22126 5958,22126 "/>
    </g>
    <g id="path4715">
     <polygon class="fil0" points="4813,22125 5775,23082 5742,23211 4775,22260 4799,22193 "/>
     <polygon class="fil1" points="4813,22125 5775,23082 5742,23211 4775,22260 4799,22193 "/>
    </g>
    <g id="path4717">
     <polygon class="fil0" points="4474,23032 5520,23921 5453,24035 4436,23168 4459,23101 4474,23032 "/>
     <polygon class="fil1" points="4474,23033 5520,23921 5453,24035 4436,23168 4459,23101 4474,23032 "/>
    </g>
    <g id="path4719">
     <polygon class="fil0" points="5772,23029 4138,23930 4111,24030 4237,24028 5748,23197 5769,23065 5772,23029 5772,23029 5772,23029 "/>
     <polygon class="fil1" points="5772,23029 4138,23930 4111,24030 4237,24028 5749,23197 5769,23065 5772,23029 5772,23029 5772,23029 "/>
    </g>
    <g id="path4723">
     <polygon class="fil0" points="5850,20093 5775,20090 5882,19566 5949,19562 5850,20093 "/>
     <polygon class="fil1" points="5850,20093 5775,20090 5882,19566 5949,19562 5850,20093 "/>
    </g>
    <g id="path4727">
     <path class="fil0" d="M6445 19520l561 579 -84 16 -530 -551 54 -44 0 0zm-483 17l380 548 -60 36 -380 -548 60 -36 0 0zm-436 9l306 553 -78 2 -291 -524 64 -31 0 0z"/>
     <path class="fil1" d="M6445 19520l561 579 -84 16 -530 -551 54 -44 0 0zm-483 17l380 548 -60 36 -380 -548 60 -36 0 0zm-436 9l306 553 -78 2 -291 -524 64 -31 0 0z"/>
    </g>
    <g id="path4729">
     <path class="fil0" d="M6912 19522l85 11 -625 574 -50 -47 590 -538zm-1047 11l53 46 -541 534 -52 -46 540 -534zm491 3l52 46 -562 544 -52 -46 562 -544z"/>
     <path class="fil1" d="M6912 19522l85 11 -625 574 -50 -47 590 -538zm-1046 11l53 46 -541 534 -52 -46 540 -534zm491 3l52 46 -562 544 -52 -46 562 -544z"/>
    </g>
    <g id="path4733">
     <path class="fil0" d="M6969 7059l0 53 -445 2 0 -53 445 -3zm-456 540l456 1 0 53 -456 -1 0 -53zm456 552l0 53 -483 0 0 -53 483 0zm0 597l0 53 -505 0 0 -53 505 0zm0 616l0 53 -548 1 0 -53 548 -1 0 0zm0 621l0 53 -572 3 -1 -53 573 -3 0 0zm0 672l0 53 -612 5 0 -53 612 -5zm-658 741l658 1 0 53 -658 -1 0 -53zm658 776l0 53 -693 3 0 -53 693 -3z"/>
     <path class="fil1" d="M6969 7059l0 53 -445 3 0 -53 445 -3zm-456 540l456 1 0 53 -456 -1 0 -53zm456 552l0 53 -483 0 0 -53 483 0zm0 597l0 53 -505 0 0 -53 505 0zm0 616l0 53 -548 1 0 -53 548 -1 0 0zm0 621l0 53 -572 3 -1 -53 573 -3 0 0zm0 672l0 53 -612 5 0 -53 612 -5zm-658 741l658 1 0 53 -658 -1 0 -53zm658 776l0 53 -693 3 0 -53 693 -3z"/>
    </g>
    <g id="path4735">
     <polygon class="fil0" points="5739,18184 6521,19066 6477,19100 5710,18237 5739,18184 "/>
     <polygon class="fil1" points="5739,18184 6521,19066 6477,19100 5710,18237 5739,18184 "/>
    </g>
    <g id="path4737">
     <polygon class="fil0" points="5886,17308 6625,18188 6627,18190 7472,19069 7429,19104 6583,18224 6582,18223 6582,18222 5841,17340 5886,17308 5886,17308 "/>
     <polygon class="fil1" points="5886,17308 6625,18188 6627,18190 7472,19069 7429,19104 6583,18224 6582,18223 6582,18222 5841,17340 5886,17308 5886,17308 "/>
    </g>
    <g id="path4739">
     <polygon class="fil0" points="5978,16358 6732,17325 6726,17408 5978,16446 5978,16358 5978,16358 "/>
     <polygon class="fil1" points="5978,16358 6732,17325 6726,17408 5978,16446 5978,16358 5978,16358 "/>
    </g>
    <g id="path4741">
     <polygon class="fil0" points="6043,15500 6815,16425 6795,16487 6039,15578 6043,15500 "/>
     <polygon class="fil1" points="6043,15500 6815,16425 6795,16487 6039,15578 6043,15500 "/>
    </g>
    <g id="path4743">
     <polygon class="fil0" points="6111,14612 6860,15527 6854,15611 6106,14694 "/>
     <polygon class="fil1" points="6111,14612 6860,15527 6854,15611 6106,14694 "/>
    </g>
    <g id="path4745">
     <polygon class="fil0" points="6178,13796 6893,14655 6888,14741 6170,13871 6178,13796 "/>
     <polygon class="fil1" points="6178,13796 6893,14655 6888,14741 6170,13871 6178,13796 "/>
    </g>
    <g id="path4747">
     <polygon class="fil0" points="6241,12973 6938,13850 6892,13882 6229,13048 6241,12973 "/>
     <polygon class="fil1" points="6241,12973 6938,13850 6892,13882 6229,13048 6241,12973 "/>
    </g>
    <g id="path4749">
     <polygon class="fil0" points="6290,12170 6964,13009 6919,13041 6282,12248 6290,12170 "/>
     <polygon class="fil1" points="6290,12170 6964,13009 6919,13041 6282,12248 6290,12170 "/>
    </g>
    <g id="path4757">
     <polygon class="fil0" points="6741,17314 7340,18211 7291,18239 6693,17342 6741,17314 "/>
     <polygon class="fil1" points="6741,17314 7340,18211 7291,18239 6693,17342 6741,17314 "/>
    </g>
    <g id="path4759">
     <path class="fil0" d="M6938 12181l45 33 -745 858 4 -82 696 -810 0 0zm-7 820l44 34 -806 881 17 -96 745 -820 0 0zm-25 836l22 52 -825 863 10 -95 794 -820zm-32 802l27 56 -857 934 20 -96 811 -894 0 0zm175 -44l26 138 -198 820 -56 -13 228 -945zm12 939l54 17 -292 903 -35 -55 273 -866 0 0zm-227 -2l43 36 -910 930 22 -100 846 -865zm-37 862l15 63 -959 941 4 -85 940 -920 0 0zm-66 868l6 75 -1024 963 15 -94 1004 -945 0 0zm463 45l40 33 -561 890 -48 -29 569 -893 0 0zm-559 856l4 71 -1019 861 -39 -39 1053 -893 0 0z"/>
     <path class="fil1" d="M6938 12181l45 33 -745 858 4 -82 696 -810 0 0zm-7 820l44 34 -806 881 17 -96 745 -820 0 0zm-25 836l22 52 -825 863 10 -95 794 -820zm-32 802l27 56 -857 934 20 -96 811 -894 0 0zm175 -44l26 138 -198 820 -56 -13 228 -945zm12 939l54 17 -292 903 -35 -55 273 -866 0 0zm-227 -2l43 36 -910 930 22 -100 846 -865zm-37 862l15 63 -959 941 4 -85 940 -920 0 0zm-66 868l6 75 -1024 963 15 -94 1004 -945 0 0zm463 45l40 33 -561 890 -48 -29 569 -893 0 0zm-559 856l4 71 -1019 861 -39 -39 1053 -893 0 0z"/>
    </g>
    <g id="path4761">
     <path class="fil0" d="M6559 6575l429 505 -38 28 -429 -505 38 -28 0 0zm-8 500l438 538 -39 27 -437 -538 39 -27 0 0zm-23 535l460 556 -39 27 -460 -556 39 -27zm-20 558l472 592 -39 27 -472 -591 39 -27zm-32 591l509 621 -39 27 -509 -621 39 -27 0 0zm-30 612l544 626 -38 28 -544 -626 38 -28zm-25 629l567 674 -39 28 -567 -675 39 -27zm-40 663l608 750 -39 27 -608 -750 39 -27 0 0zm-9 65l668 801 -39 27 -668 -801 39 -27z"/>
     <path class="fil1" d="M6559 6575l429 505 -38 28 -429 -505 38 -28 0 0zm-8 500l438 538 -39 27 -437 -538 39 -27 0 0zm-23 535l460 556 -39 27 -460 -556 39 -27zm-20 558l472 592 -39 27 -472 -591 39 -27zm-32 591l509 621 -39 27 -509 -621 39 -27 0 0zm-30 612l544 626 -38 28 -544 -626 38 -28zm-25 629l567 674 -39 28 -567 -675 39 -27zm-40 663l608 750 -39 27 -608 -750 39 -27 0 0zm-9 65l668 801 -39 27 -668 -801 39 -27z"/>
    </g>
    <g id="path4763">
     <path class="fil0" d="M6959 6569l38 28 -449 518 -39 -28 450 -518zm2 497l39 28 -469 542 -38 -28 468 -542 0 0zm3 549l37 29 -508 561 -18 -51 489 -539 0 0zm-13 552l38 28 -515 590 -38 -28 515 -590zm6 596l38 29 -551 617 -38 -28 551 -617zm0 609l37 29 -586 637 -37 -30 586 -637 0 0zm-3 620l38 28 -615 684 -37 -29 614 -683zm-4 677l38 28 -657 753 -38 -28 657 -753 0 0zm4 737l38 29 -696 784 -38 -28 696 -785 0 0z"/>
     <path class="fil1" d="M6959 6569l38 28 -449 518 -39 -28 450 -518zm2 497l39 28 -469 542 -38 -28 468 -542 0 0zm3 549l37 29 -508 561 -18 -51 489 -539 0 0zm-13 552l38 28 -515 590 -38 -28 515 -590zm6 596l38 29 -551 617 -38 -28 551 -617zm0 609l37 29 -586 637 -37 -30 586 -637 0 0zm-3 620l38 28 -615 684 -37 -29 614 -683zm-4 677l38 28 -657 753 -38 -28 657 -753 0 0zm4 737l38 29 -696 784 -38 -28 696 -785 0 0z"/>
    </g>
    <g id="svg_2">
     <path class="fil0" d="M6938 12181l45 33 -745 858 4 -82 696 -810 0 0zm-7 820l44 34 -806 881 17 -96 745 -820 0 0zm-25 836l22 52 -825 863 10 -95 794 -820zm-32 802l27 56 -857 934 20 -96 811 -894 0 0zm175 -44l26 138 -198 820 -56 -13 228 -945zm-169 927l-16 5 -42 928 -35 -55 93 -878zm-46 10l43 36 -910 930 22 -100 846 -865zm-37 862l15 63 -959 941 4 -85 940 -920 0 0zm-66 868l6 75 -1024 963 15 -94 1004 -945 0 0zm463 45l40 33 -561 890 -48 -29 569 -893 0 0zm-559 856l4 71 -1019 861 -39 -39 1053 -893 0 0z"/>
     <path class="fil1" d="M6938 12181l45 33 -745 858 4 -82 696 -810 0 0zm-7 820l44 34 -806 881 17 -96 745 -820 0 0zm-25 836l22 52 -825 863 10 -95 794 -820zm-32 802l27 56 -857 934 20 -96 811 -894 0 0zm175 -44l26 138 -198 820 -56 -13 228 -945zm-169 927l-16 5 -42 928 -35 -55 93 -878zm-46 10l43 36 -910 930 22 -100 846 -865zm-37 862l15 63 -959 941 4 -85 940 -920 0 0zm-66 868l6 75 -1024 963 15 -94 1004 -945 0 0zm463 45l40 33 -561 890 -48 -29 569 -893 0 0zm-559 856l4 71 -1019 861 -39 -39 1053 -893 0 0z"/>
    </g>
    <g id="svg_3">
     <polygon class="fil0" points="7974,16321 7221,17288 7227,17371 7975,16409 7974,16321 7974,16321 "/>
     <polygon class="fil1" points="7974,16321 7221,17288 7227,17371 7975,16409 7974,16321 7974,16321 "/>
    </g>
   </g>
   <g id="layer5" display="inline">
    <path id="path4136" class="fil1" d="M5389 20102l265 246 34 0 -265 -246 -34 0zm137 0l265 246 33 -1 -265 -245 -34 0 0 0 0 0zm138 0l264 245 34 0 -264 -245 -34 0 0 0zm137 0l265 245 34 0 -264 -245 -35 0zm138 0l264 245 35 0 -265 -245 -34 0zm138 0l264 245 34 0 -264 -245 -34 0zm138 1l264 245 34 0 -264 -245 -34 0 0 0zm138 0l263 245 34 0 -263 -245 -34 0 0 0zm137 0l264 245 34 0 -263 -245 -35 0zm138 0l263 245 35 0 -264 -245 -34 0 0 0zm138 0l263 244 33 0 -262 -244 -34 0 0 0zm137 0l263 244 34 0 -263 -244 -34 0zm138 0l262 244 34 0 -262 -244 -34 0 0 0zm137 0l263 244 34 0 -262 -244 -35 0 0 0zm138 0l262 244 35 0 -263 -244 -34 0zm138 0l262 244 34 0 -262 -244 -34 0 0 0zm137 0l263 244 34 0 -263 -244 -34 0zm138 0l262 244 34 0 -262 -243 -34 -1 0 0zm138 1l261 242 34 0 -260 -242 -35 0zm138 0l260 242 35 0 -261 -242 -34 0 0 0zm138 0l260 242 34 0 -260 -242 -34 0zm137 0l261 242 34 0 -261 -242 -34 0 0 0zm138 0l205 191 -12 -42 -160 -149 -34 0 0 0zm137 0l22 21 -5 -21 -17 0zm-3255 15l-7 25 220 205 35 0 -248 -230zm-30 101l-7 25 112 104 34 0 -139 -129zm-29 102l-7 25 3 2 34 0 -30 -27 0 0 0 0z"/>
    <path id="path4134" class="fil1" d="M5307 20102l-4 16 17 -16 -13 0zm116 0l-158 146 -13 44 205 -191 -35 0 0 0zm138 0l-265 246 35 0 265 -246 -34 0 0 0zm138 0l-266 246 35 0 265 -246 -34 0zm137 0l-265 246 35 0 265 -246 -34 0 0 0zm138 0l-266 246 36 0 265 -246 -34 0zm137 0l-265 245 35 0 264 -245 -34 -1 0 0zm137 1l-264 245 35 0 263 -245 -34 0 0 0zm138 0l-265 245 35 0 264 -245 -34 0 0 0zm137 0l-264 245 35 0 263 -245 -34 0zm138 0l-265 245 36 0 263 -245 -34 0 0 0zm137 0l-264 245 35 0 264 -245 -35 0zm138 0l-264 245 35 0 263 -245 -34 0zm138 0l-265 245 35 0 264 -245 -34 0zm137 0l-263 244 34 0 263 -244 -34 0zm138 0l-264 244 36 0 262 -244 -34 0zm137 0l-263 244 35 0 263 -244 -35 0 0 0zm138 0l-263 244 35 0 262 -244 -34 0 0 0zm137 1l-263 243 35 0 262 -243 -34 0zm137 0l-262 243 35 0 261 -243 -34 0 0 0zm138 0l-263 243 36 0 261 -243 -34 0zm137 0l-262 243 35 0 262 -243 -35 0 0 0zm138 0l-262 243 35 -1 261 -242 -34 0 0 0 0 0zm138 0l-262 242 35 0 261 -242 -34 0 0 0zm126 11l-249 231 35 0 221 -206 -7 -25zm28 102l-140 129 36 0 110 -103 -6 -26 0 0 0 0zm27 102l-29 27 35 0 1 0 0 -1 -7 -26 0 0z"/>
    <path id="path5069" class="fil1" d="M6371 19521l-920 9 -22 0 -5 20 -212 794 -239 871 -248 930 0 1 -146 476 -1 2 -534 1399 -13 36 40 0 1390 8 22 0 6 -19 285 -923 1 -1 0 -2 184 -939 175 -957 144 -850 664 0 665 0 144 850 175 957 184 939 0 2 1 1 285 923 6 19 22 0 1390 -8 40 0 -13 -36 -534 -1399 -1 -2 -146 -476 0 -1 -248 -930 -239 -871 -212 -794 -5 -20 -22 0 -920 -9 -33 0 4 31 79 529 -621 0 -621 0 79 -529 4 -31 -33 0 0 0zm-898 52l865 1 -76 507 -922 0 133 -508 0 0zm2937 0l133 508 -922 0 -76 -507 865 -1 0 0 0 0zm-3084 561l929 0 -29 189 -951 0 50 -189zm986 0l629 0 630 0 28 189 -657 0 -656 0 28 -189zm1316 0l929 0 50 189 -951 0 -29 -189 0 0zm-2366 242l957 0 -143 841 -175 956 -183 937 -1 2 -278 900 -1328 -8 520 -1366 0 -1 1 -1 147 -478 0 -1 248 -931 234 -852 0 0 0 0zm2403 0l957 0 234 852 248 931 0 1 147 478 1 1 0 1 520 1366 -1328 8 -278 -900 -1 -2 -183 -937 -175 -956 -143 -841 0 0 0 0z"/>
    <rect id="rect4598" class="fil1" x="6915" y="2058" width="50.2914" height="1213.32"/>
    <g id="g4313">
     <rect id="rect4315" class="fil1" x="9325" y="23424" width="20.8263" height="621.401"/>
     <rect id="rect4317" class="fil1" x="9403" y="23422" width="20.8263" height="621.401"/>
    </g>
    <rect id="rect4321" class="fil1" x="10019" y="23424" width="20.8263" height="621.401"/>
    <path id="path3660" class="fil1" d="M6762 25384c-73,4 -226,14 -338,29 -158,22 -316,47 -471,90 -158,44 -309,105 -456,171 -153,68 -302,147 -445,233 -113,68 -219,143 -322,223 -109,84 -215,173 -312,270 -115,116 -223,239 -317,370 -104,144 -195,298 -272,456 -63,129 -113,263 -153,399 -35,120 -63,242 -77,366 -11,94 -5,272 -5,272 1,14 15,26 30,26 15,0 28,-13 28,-27 0,0 -4,-180 5,-265 14,-121 41,-240 75,-358 40,-134 89,-266 151,-392 76,-156 164,-306 266,-448 92,-129 199,-250 312,-364 95,-95 199,-182 307,-265 101,-79 206,-153 317,-220 140,-85 287,-161 439,-229 146,-65 293,-125 447,-168 150,-42 306,-67 463,-88 168,-25 329,-33 508,-34 179,-1 341,13 511,34 157,22 313,46 463,88 153,43 301,103 447,168 151,67 298,144 439,229 110,67 215,141 317,220 108,84 212,170 307,265 113,114 220,236 312,364 102,142 191,292 266,448 61,126 111,258 151,392 35,118 62,237 75,358 10,84 5,265 5,265 0,14 13,27 28,27 15,0 29,-12 30,-26 0,0 5,-179 -5,-272 -14,-124 -42,-246 -77,-366 -40,-136 -91,-270 -153,-399 -77,-158 -168,-312 -272,-456 -94,-131 -202,-255 -317,-370 -97,-97 -203,-186 -312,-270 -103,-80 -209,-155 -322,-223 -143,-86 -292,-165 -445,-233 -147,-66 -298,-126 -456,-171 -154,-43 -313,-68 -471,-90 -112,-15 -225,-24 -338,-29 -65,-5 -118,-3 -179,-5 -62,-1 -107,0 -180,5l0 0z"/>
    <polygon id="path2823" class="fil1" points="10338,28544 10407,28421 12294,28429 12399,28544 "/>
    <polygon class="fil2" points="10336,28544 10405,28420 10406,28419 10407,28419 12294,28427 12295,28427 12296,28427 12401,28544 12396,28544 12293,28431 10408,28422 10340,28544 "/>
    <path id="path3876" class="fil1" d="M7270 24476l30 28 -348 324 -30 -28 349 -324 0 0zm2434 3l30 28 -699 641 -30 -28 699 -641zm-1055 0l30 28 -686 641 -30 -28 686 -641 0 0zm-339 2l30 28 -695 639 -30 -28 695 -639zm-347 0l30 28 -694 639 -30 -28 695 -639 0 0zm-348 0l30 28 -694 639 -30 -28 694 -639 0 0zm1737 2l30 28 -695 637 -30 -28 695 -637zm-352 0l30 28 -690 637 -30 -28 690 -637zm1008 36l38 32 -665 598 -30 -29 657 -601 0 0zm38 281l30 29 -350 316 -30 -28 349 -317z"/>
    <path id="path3945" class="fil1" d="M9043 25120l-30 28 344 319 30 -28 -345 -319 0 0zm174 0l-30 28 344 319 30 -28 -344 -319zm169 0l-30 28 350 320 30 -29 -350 -319 0 0zm173 0l-30 28 350 320 30 -29 -350 -319zm524 0l-30 28 347 320 30 -28 -346 -320 0 0zm-349 3l-30 28 349 315 30 -28 -349 -315zm523 -3l-30 28 349 315 30 -28 -698 -311 349 -3z"/>
    <polygon id="path3985" class="fil1" points="9150,25433 9150,25473 10492,25474 10492,25434 "/>
    <g id="g4771">
     <rect id="rect4773" class="fil1" x="4538" y="23424" width="20.8132" height="621.397"/>
     <rect id="rect4775" class="fil1" x="4459" y="23422" width="20.8132" height="621.397"/>
    </g>
    <g id="g4811">
     <rect id="rect4813" class="fil1" x="6621" y="23397" width="20.8132" height="621.397"/>
     <rect id="rect4815" class="fil1" x="6543" y="23396" width="20.8132" height="621.397"/>
    </g>
    <g id="g4817">
     <rect id="rect4819" class="fil1" x="5232" y="23397" width="20.8132" height="621.397"/>
     <rect id="rect4821" class="fil1" x="5154" y="23396" width="20.8132" height="621.397"/>
    </g>
    <path id="path2827" class="fil1" d="M6516 5671l0 19 -56 1916 0 1 -54 1147 -62 1232 -76 1409 -84 1592 0 1 -59 836 -65 825 -65 878 -77 873 -101 895 0 1 -136 905 0 1 -153 959 -4 22 25 1 893 8 18 0 4 -17 167 -964 1 -1 139 -1353 0 -1 79 -1348 0 -1 93 -2371 94 2371 0 1 79 1348 0 1 139 1353 1 1 167 964 4 17 18 0 893 -8 25 -1 -4 -22 -153 -959 0 -1 -136 -905 0 -1 -101 -895 -77 -873 -65 -878 -65 -825 -59 -836 0 -1 -84 -1592 -76 -1409 -62 -1232 -54 -1147 0 -1 -56 -1916 0 -19 -22 0 -383 3 -21 0 -1 0 -21 0 -383 -3 -22 0 0 0 0 0zm42 40l361 3 0 643 -380 0 19 -647 0 0zm767 0l19 647 -380 0 0 -643 361 -3 0 0zm-786 690l381 0 0 139 -386 0 4 -139zm425 0l381 0 4 139 -386 0 0 -139zm-430 191l386 0 0 6012 0 1 -115 2902 -79 1347 0 1 -139 1351 0 2 -165 946 -849 -8 151 -937 0 -1 135 -906 1 0 0 -1 100 -896 1 -1 77 -873 0 -1 65 -878 65 -824 0 -1 59 -836 0 -1 84 -1592 76 -1410 62 -1232 54 -1148 30 -1017 0 0 0 0zm430 0l387 0 30 1017 54 1148 62 1232 76 1410 84 1592 0 1 59 836 0 1 65 824 65 878 0 1 77 873 1 1 100 896 0 1 1 0 135 906 0 1 151 937 -849 8 -165 -946 0 -2 -139 -1351 0 -1 -79 -1347 -115 -2902 0 -1 0 -6012 0 0 0 0z"/>
    <path id="path3657" class="fil1" d="M10193 28399l133 -1m-124 -84l117 0m-158 228l196 0 -31 -37 -1 -106c0,0 34,-8 39,-18 5,-10 7,-43 0,-51 -7,-8 -46,-16 -46,-16 0,0 7,-57 -7,-72 -14,-15 -39,-12 -39,-12 0,0 -27,0 -27,0 0,0 -24,-3 -39,12 -14,15 -7,72 -7,72 0,0 -39,8 -46,16 -7,8 -5,42 0,51 5,10 39,18 39,18l-1 106 -31 37 0 0z"/>
    <polygon id="path3839" class="fil1" points="3725,24010 3777,24113 3810,24234 3826,24445 6940,24445 6943,24445 10057,24445 10074,24234 10106,24113 10158,24010 6942,24010 6941,24097 6941,24010 3725,24010 3725,24010 "/>
    <g id="g4297">
     <rect id="rect4293" class="fil1" x="7242" y="23397" width="20.8263" height="621.401"/>
     <rect id="rect4295" class="fil1" x="7320" y="23396" width="20.8263" height="621.401"/>
    </g>
    <g id="g4307">
     <rect id="rect4309" class="fil1" x="8630" y="23397" width="20.8263" height="621.401"/>
     <rect id="rect4311" class="fil1" x="8709" y="23396" width="20.8263" height="621.401"/>
    </g>
    <g id="g4301">
     <rect id="rect4303" class="fil1" x="7936" y="23397" width="20.8263" height="621.401"/>
     <rect id="rect4305" class="fil1" x="8014" y="23396" width="20.8263" height="621.401"/>
    </g>
    <polygon id="path3809-3" class="fil1" points="3699,23981 3699,24021 6932,24021 6941,24021 10185,24021 10185,23981 6941,23981 6932,23981 "/>
    <path id="path4100" class="fil1" d="M10070 24297c-3131,-1 -3131,-1 -3131,-1m3131 1l0 0 0 0z"/>
    <g id="g4110">
     <polygon id="path3896-8" class="fil1" points="6913,24022 6914,24444 6971,24444 6970,24022 6913,24022 "/>
     <path class="fil1" d="M6905 24281l74 0c4,0 7,3 7,7l0 20c0,4 -3,7 -7,7l-74 0c-4,0 -7,-3 -7,-7l0 -20c0,-4 3,-7 7,-7z"/>
     <path class="fil1" d="M6906 24052l71 0c4,0 7,3 7,7l0 44c0,4 -3,7 -7,7l-71 0c-4,0 -7,-3 -7,-7l0 -44c0,-4 3,-7 7,-7z"/>
     <path class="fil1" d="M6919 24022l44 0c4,0 7,3 7,7l0 107c0,4 -3,7 -7,7l-44 0c-4,0 -7,-3 -7,-7l0 -107c0,-4 3,-7 7,-7z"/>
     <path class="fil1" d="M6930 24022l24 0c4,0 7,3 7,7l0 94c0,4 -3,7 -7,7l-24 0c-4,0 -7,-3 -7,-7l0 -94c0,-4 3,-7 7,-7z"/>
    </g>
    <g id="g4117">
     <polygon id="path4119" class="fil1" points="6914,24022 6915,24444 6972,24444 6971,24022 6914,24022 "/>
     <path class="fil1" d="M6906 24281l74 0c4,0 7,3 7,7l0 20c0,4 -3,7 -7,7l-74 0c-4,0 -7,-3 -7,-7l0 -20c0,-4 3,-7 7,-7z"/>
     <path class="fil1" d="M6907 24052l71 0c4,0 7,3 7,7l0 44c0,4 -3,7 -7,7l-71 0c-4,0 -7,-3 -7,-7l0 -44c0,-4 3,-7 7,-7z"/>
     <path class="fil1" d="M6921 24022l44 0c4,0 7,3 7,7l0 107c0,4 -3,7 -7,7l-44 0c-4,0 -7,-3 -7,-7l0 -107c0,-4 3,-7 7,-7z"/>
     <path class="fil1" d="M6931 24022l24 0c4,0 7,3 7,7l0 94c0,4 -3,7 -7,7l-24 0c-4,0 -7,-3 -7,-7l0 -94c0,-4 3,-7 7,-7z"/>
    </g>
    <g id="g4167">
     <polygon id="path4169" class="fil1" points="7261,24022 7262,24444 7320,24444 7319,24022 7261,24022 "/>
     <path class="fil1" d="M7254 24281l74 0c4,0 7,3 7,7l0 20c0,4 -3,7 -7,7l-74 0c-4,0 -7,-3 -7,-7l0 -20c0,-4 3,-7 7,-7z"/>
     <path class="fil1" d="M7254 24052l71 0c4,0 7,3 7,7l0 44c0,4 -3,7 -7,7l-71 0c-4,0 -7,-3 -7,-7l0 -44c0,-4 3,-7 7,-7z"/>
     <path class="fil1" d="M7268 24022l44 0c4,0 7,3 7,7l0 107c0,4 -3,7 -7,7l-44 0c-4,0 -7,-3 -7,-7l0 -107c0,-4 3,-7 7,-7z"/>
     <path class="fil1" d="M7278 24022l24 0c4,0 7,3 7,7l0 94c0,4 -3,7 -7,7l-24 0c-4,0 -7,-3 -7,-7l0 -94c0,-4 3,-7 7,-7z"/>
    </g>
    <g id="g4179">
     <polygon id="path4181" class="fil1" points="7608,24022 7609,24444 7667,24444 7666,24022 7608,24022 "/>
     <path class="fil1" d="M7601 24281l74 0c4,0 7,3 7,7l0 20c0,4 -3,7 -7,7l-74 0c-4,0 -7,-3 -7,-7l0 -20c0,-4 3,-7 7,-7z"/>
     <path class="fil1" d="M7602 24052l71 0c4,0 7,3 7,7l0 44c0,4 -3,7 -7,7l-71 0c-4,0 -7,-3 -7,-7l0 -44c0,-4 3,-7 7,-7z"/>
     <path class="fil1" d="M7615 24022l44 0c4,0 7,3 7,7l0 107c0,4 -3,7 -7,7l-44 0c-4,0 -7,-3 -7,-7l0 -107c0,-4 3,-7 7,-7z"/>
     <path class="fil1" d="M7626 24022l24 0c4,0 7,3 7,7l0 94c0,4 -3,7 -7,7l-24 0c-4,0 -7,-3 -7,-7l0 -94c0,-4 3,-7 7,-7z"/>
    </g>
    <g id="g4191">
     <polygon id="path4193" class="fil1" points="7956,24022 7957,24444 8014,24444 8013,24022 "/>
     <path class="fil1" d="M7948 24281l74 0c4,0 7,3 7,7l0 20c0,4 -3,7 -7,7l-74 0c-4,0 -7,-3 -7,-7l0 -20c0,-4 3,-7 7,-7z"/>
     <path class="fil1" d="M7949 24052l71 0c4,0 7,3 7,7l0 44c0,4 -3,7 -7,7l-71 0c-4,0 -7,-3 -7,-7l0 -44c0,-4 3,-7 7,-7z"/>
     <path class="fil1" d="M7962 24022l44 0c4,0 7,3 7,7l0 107c0,4 -3,7 -7,7l-44 0c-4,0 -7,-3 -7,-7l0 -107c0,-4 3,-7 7,-7z"/>
     <path class="fil1" d="M7973 24022l24 0c4,0 7,3 7,7l0 94c0,4 -3,7 -7,7l-24 0c-4,0 -7,-3 -7,-7l0 -94c0,-4 3,-7 7,-7z"/>
    </g>
    <g id="g4203">
     <polygon id="path4205" class="fil1" points="8303,24022 8304,24444 8361,24444 8360,24022 "/>
     <path class="fil1" d="M8295 24281l74 0c4,0 7,3 7,7l0 20c0,4 -3,7 -7,7l-74 0c-4,0 -7,-3 -7,-7l0 -20c0,-4 3,-7 7,-7z"/>
     <path class="fil1" d="M8296 24052l71 0c4,0 7,3 7,7l0 44c0,4 -3,7 -7,7l-71 0c-4,0 -7,-3 -7,-7l0 -44c0,-4 3,-7 7,-7z"/>
     <path class="fil1" d="M8309 24022l44 0c4,0 7,3 7,7l0 107c0,4 -3,7 -7,7l-44 0c-4,0 -7,-3 -7,-7l0 -107c0,-4 3,-7 7,-7z"/>
     <path class="fil1" d="M8320 24022l24 0c4,0 7,3 7,7l0 94c0,4 -3,7 -7,7l-24 0c-4,0 -7,-3 -7,-7l0 -94c0,-4 3,-7 7,-7z"/>
    </g>
    <g id="g4215">
     <polygon id="path4217" class="fil1" points="8650,24022 8651,24444 8708,24444 8707,24022 8650,24022 "/>
     <path class="fil1" d="M8643 24281l74 0c4,0 7,3 7,7l0 20c0,4 -3,7 -7,7l-74 0c-4,0 -7,-3 -7,-7l0 -20c0,-4 3,-7 7,-7z"/>
     <path class="fil1" d="M8643 24052l71 0c4,0 7,3 7,7l0 44c0,4 -3,7 -7,7l-71 0c-4,0 -7,-3 -7,-7l0 -44c0,-4 3,-7 7,-7z"/>
     <path class="fil1" d="M8657 24022l44 0c4,0 7,3 7,7l0 107c0,4 -3,7 -7,7l-44 0c-4,0 -7,-3 -7,-7l0 -107c0,-4 3,-7 7,-7z"/>
     <path class="fil1" d="M8667 24022l24 0c4,0 7,3 7,7l0 94c0,4 -3,7 -7,7l-24 0c-4,0 -7,-3 -7,-7l0 -94c0,-4 3,-7 7,-7z"/>
    </g>
    <g id="g4227">
     <polygon id="path4229" class="fil1" points="8997,24022 8998,24444 9056,24444 9055,24022 8997,24022 "/>
     <path class="fil1" d="M8990 24281l74 0c4,0 7,3 7,7l0 20c0,4 -3,7 -7,7l-74 0c-4,0 -7,-3 -7,-7l0 -20c0,-4 3,-7 7,-7z"/>
     <path class="fil1" d="M8990 24052l71 0c4,0 7,3 7,7l0 44c0,4 -3,7 -7,7l-71 0c-4,0 -7,-3 -7,-7l0 -44c0,-4 3,-7 7,-7z"/>
     <path class="fil1" d="M9004 24022l44 0c4,0 7,3 7,7l0 107c0,4 -3,7 -7,7l-44 0c-4,0 -7,-3 -7,-7l0 -107c0,-4 3,-7 7,-7z"/>
     <path class="fil1" d="M9014 24022l24 0c4,0 7,3 7,7l0 94c0,4 -3,7 -7,7l-24 0c-4,0 -7,-3 -7,-7l0 -94c0,-4 3,-7 7,-7z"/>
    </g>
    <g id="g4239">
     <polygon id="path4241" class="fil1" points="9345,24022 9345,24444 9403,24444 9402,24022 "/>
     <path class="fil1" d="M9337 24281l74 0c4,0 7,3 7,7l0 20c0,4 -3,7 -7,7l-74 0c-4,0 -7,-3 -7,-7l0 -20c0,-4 3,-7 7,-7z"/>
     <path class="fil1" d="M9338 24052l71 0c4,0 7,3 7,7l0 44c0,4 -3,7 -7,7l-71 0c-4,0 -7,-3 -7,-7l0 -44c0,-4 3,-7 7,-7z"/>
     <path class="fil1" d="M9351 24022l44 0c4,0 7,3 7,7l0 107c0,4 -3,7 -7,7l-44 0c-4,0 -7,-3 -7,-7l0 -107c0,-4 3,-7 7,-7z"/>
     <path class="fil1" d="M9362 24022l24 0c4,0 7,3 7,7l0 94c0,4 -3,7 -7,7l-24 0c-4,0 -7,-3 -7,-7l0 -94c0,-4 3,-7 7,-7z"/>
    </g>
    <g id="g4251">
     <polygon id="path4253" class="fil1" points="9692,24022 9693,24444 9750,24444 9749,24022 "/>
     <path class="fil1" d="M9684 24281l74 0c4,0 7,3 7,7l0 20c0,4 -3,7 -7,7l-74 0c-4,0 -7,-3 -7,-7l0 -20c0,-4 3,-7 7,-7z"/>
     <path class="fil1" d="M9685 24052l71 0c4,0 7,3 7,7l0 44c0,4 -3,7 -7,7l-71 0c-4,0 -7,-3 -7,-7l0 -44c0,-4 3,-7 7,-7z"/>
     <path class="fil1" d="M9698 24022l44 0c4,0 7,3 7,7l0 107c0,4 -3,7 -7,7l-44 0c-4,0 -7,-3 -7,-7l0 -107c0,-4 3,-7 7,-7z"/>
     <path class="fil1" d="M9709 24022l24 0c4,0 7,3 7,7l0 94c0,4 -3,7 -7,7l-24 0c-4,0 -7,-3 -7,-7l0 -94c0,-4 3,-7 7,-7z"/>
    </g>
    <g id="g4823">
     <rect id="rect4825" class="fil1" x="5927" y="23397" width="20.8132" height="621.397"/>
     <rect id="rect4827" class="fil1" x="5848" y="23396" width="20.8132" height="621.397"/>
    </g>
    <polygon id="path5026" class="fil1" points="3832,23354 3832,23423 6937,23423 6941,23423 10051,23423 10051,23354 6941,23354 6936,23354 "/>
    <g id="rect4327">
     <polygon class="fil0" points="3838,23844 3838,23981 6938,23981 6946,23981 10045,23981 10045,23844 6946,23844 6938,23844 "/>
     <polygon class="fil1" points="3838,23844 3838,23981 6938,23981 6946,23981 10045,23981 10045,23844 6946,23844 6938,23844 "/>
    </g>
    <path id="rect4329" class="fil1" d="M6921 19030l-1712 3 4 59 44 0c108,18 152,213 158,434l1507 0 42 0 1507 0c6,-221 50,-415 158,-434l44 0 4 -59 -1712 -3 -42 0 0 0z"/>
    <path id="path4332" class="fil1" d="M8648 19094l-1731 0m1731 0l0 0 0 0z"/>
    <rect id="rect4334" class="fil1" x="8055" y="19097" width="45.8283" height="426.018"/>
    <rect id="rect4336" class="fil1" x="7772" y="19097" width="45.8283" height="426.018"/>
    <rect id="rect4338" class="fil1" x="7488" y="19097" width="45.8283" height="426.018"/>
    <rect id="rect4340" class="fil1" x="7204" y="19097" width="45.8283" height="426.018"/>
    <rect id="rect4342" class="fil1" x="6920" y="19097" width="45.8283" height="426.018"/>
    <rect id="rect4344" class="fil1" x="8339" y="19097" width="45.8283" height="426.018"/>
    <g id="rect4346">
     <polygon class="fil0" points="5235,18891 5235,19030 6917,19030 6966,19030 8649,19030 8649,18891 6966,18891 6917,18891 "/>
     <polygon class="fil1" points="5235,18891 5235,19030 6917,19030 6966,19030 8649,19030 8649,18891 6966,18891 6917,18891 "/>
    </g>
    <polygon id="path2825" class="fil1" points="12288,28405 12325,28358 12037,28190 10538,28190 10368,28356 10410,28402 12288,28405 "/>
    <path id="path4618" class="fil1" d="M6967 4292c0,0 109,20 193,79 168,132 208,234 268,373 38,98 60,211 60,211l-126 -3c0,0 -43,-152 -72,-219 -29,-67 -99,-182 -170,-252 -72,-70 -155,-86 -155,-86l2 -103 0 0 0 0z"/>
    <polygon id="rect4594" class="fil1" points="6392,4943 6392,5525 6409,5525 7475,5525 7492,5525 7492,4943 7475,4943 6409,4943 "/>
    <rect id="rect4596" class="fil1" x="6885" y="3195" width="114" height="1213"/>
    <rect id="rect4616" class="fil1" x="6905" y="4306" width="73.757" height="718.657"/>
    <rect id="rect4610" class="fil1" x="7053" y="2044" width="16.7638" height="90.2191"/>
    <rect id="rect4608" class="fil1" x="6804" y="2113" width="278.269" height="49.7777"/>
    <rect id="rect4614" class="fil1" x="7445" y="4766" width="141" height="215"/>
    <rect id="rect4630" class="fil1" x="7122" y="5729" width="47.2657" height="668.035"/>
    <rect id="rect4632" class="fil1" x="6917" y="5729" width="47.2657" height="668.035"/>
    <rect id="rect4634" class="fil1" x="7334" y="5733" width="47.2657" height="668.035"/>
    <path id="rect4636" class="fil1" d="M7381 5729l268 4c0,0 -69,27 -149,175 -81,148 -118,489 -118,489l0 -668 0 0z"/>
    <polygon id="path4781" class="fil1" points="3559,28541 3476,28394 1589,28402 1463,28541 3559,28541 "/>
    <path id="path4783" class="fil1" d="M4150 24449l30 28 -348 324 -30 -28 349 -324 0 0zm2434 2l31 28 -699 641 -30 -28 699 -641 0 0zm-1055 0l31 28 -686 641 -30 -28 686 -641 0 0 0 0zm-339 2l30 28 -695 639 -31 -28 695 -639 0 0zm-347 0l30 28 -694 639 -31 -28 695 -639zm-348 0l31 28 -694 639 -30 -28 694 -639zm1737 2l30 28 -695 637 -30 -28 695 -637zm-352 0l31 28 -690 637 -30 -28 690 -637 0 0zm1051 6l30 28 -700 632 -30 -29 699 -631zm-5 311l30 29 -350 316 -30 -28 349 -317z"/>
    <path id="path4785" class="fil1" d="M6613 24449l-30 28 348 324 30 -28 -349 -324zm-2434 3l-30 28 699 641 30 -28 -699 -641 0 0zm1055 0l-30 28 686 641 30 -28 -686 -641 0 0 0 0zm339 2l-30 28 695 639 30 -28 -695 -639 0 0zm347 0l-30 28 694 639 30 -28 -695 -639 0 0zm348 0l-30 28 694 639 30 -28 -694 -639 0 0zm-1737 2l-30 28 695 637 30 -28 -695 -637 0 0zm352 0l-30 28 690 637 30 -28 -690 -637 0 0zm-1051 6l-30 28 700 632 30 -29 -699 -631 0 0zm5 311l-30 29 350 316 30 -28 -349 -317z"/>
    <path id="path4787" class="fil1" d="M4840 25093l30 28 -344 319 -30 -28 345 -319zm-174 0l30 28 -344 319 -30 -28 344 -319zm-169 0l30 28 -350 320 -30 -29 350 -319zm-173 0l30 28 -350 320 -30 -29 350 -319zm-524 0l30 28 -347 320 -30 -28 346 -320zm349 3l30 28 -349 315 -30 -28 349 -315 0 0zm-174 0l30 28 -349 315 -30 -28 349 -315 0 0z"/>
    <path id="path4789" class="fil1" d="M6567 24463l-1 643 57 0 1 -643 -57 0 0 0zm693 0l1 643 57 0 -1 -643 -57 0 0 0zm-2431 3l1 641 57 0 -1 -641 -57 0 0 0zm399 0l-57 1 6 640 57 -1 -6 -640zm3428 0l-6 640 57 1 6 -640 -57 -1zm342 0l-1 641 57 0 1 -641 -57 0 0 0zm-4868 3l5 637 57 -1 -5 -637 -57 0 0 0 0 0zm352 0l1 637 57 0 -1 -637 -57 0zm1035 0l8 637 57 -1 -8 -637 -57 0 0 0 0 0zm352 0l4 637 57 -1 -4 -637 -57 0 0 0 0 0zm348 0l3 637 57 -1 -3 -637 -57 0 0 0 0 0zm693 0l4 637 29 -1 30 1 4 -637 -10 0 -48 0 -10 0zm703 0l-3 637 57 1 3 -637 -57 0 0 0 0 0zm348 0l-4 637 57 1 4 -637 -57 0 0 0 0 0zm352 0l-8 637 57 1 8 -637 -57 0 0 0 0 0zm1035 0l-1 637 57 0 1 -637 -57 0 0 0zm352 0l-5 637 57 1 5 -637 -57 0 0 0 0 0zm-5909 211l0 426 57 0 0 -426 -57 0zm6251 0l0 426 57 0 0 -426 -57 0z"/>
    <path id="path4791" class="fil1" d="M4524 25093l258 239c-1,1 -3,2 -4,3 -1,1 0,2 -1,2 0,0 0,1 0,2 -1,1 -3,1 -4,2 0,0 0,0 0,1 -1,1 -2,2 -3,3 0,1 0,2 0,3 0,1 -1,0 -1,1 0,0 0,1 0,2 0,1 -1,1 -2,2 -1,1 0,1 0,1 1,0 1,-1 -2,2 0,1 0,2 0,2 0,1 -1,1 -1,2 0,1 0,4 0,5 0,1 -1,1 -2,2 -1,1 1,3 0,4l-271 -249 30 -28 0 0 0 0zm-524 0l350 319 -30 29 -350 -320 30 -28zm-173 0l350 319 -30 29 -350 -320 30 -28zm-169 0l344 319 -30 28 -344 -319 30 -28zm691 3l349 315 -30 28 -349 -315 30 -28 0 0zm-174 0l349 315 -30 28 -349 -315 30 -28 0 0zm-624 59l278 256 -30 28 -271 -250c0,0 0,-1 0,-1 1,-1 2,-1 3,-2 0,0 0,-1 0,-2 0,-1 4,-3 4,-4l2 -1c0,0 1,-1 2,-2 0,0 0,-1 0,-2 1,-1 2,-1 3,-2 1,-1 0,-2 1,-3 0,0 0,-1 0,-2 0,-1 1,0 2,-1 0,0 0,-1 0,-2 0,-1 1,-1 2,-2 0,0 0,0 0,-1 0,-1 1,-1 1,-2 1,-1 -1,-1 0,-3 0,-1 1,-1 2,-2 0,0 0,-1 0,-1 0,0 1,0 1,0 0,0 0,-1 0,-2 0,-1 1,0 2,-1l0 0 0 0z"/>
    <polygon id="path4797" class="fil1" points="4733,25406 4733,25446 3392,25448 3392,25408 4733,25406 "/>
    <path id="path4799" class="fil1" d="M5242 24443l39 57 -1944 3672 -10 25 -1453 -3 52 -49 1935 -3680 39 -22 1342 0 0 0zm-69 80l-1246 0 -1893 3600 1237 -7 1902 -3592 0 0z"/>
    <path id="path4805" class="fil1" d="M3691 28399l-133 -1m124 -84l-117 0m158 228l-196 0 31 -37 1 -106c0,0 -34,-8 -39,-18 -5,-10 -7,-43 0,-51 7,-8 46,-16 46,-16 0,0 -7,-57 7,-72 14,-15 39,-12 39,-12 0,0 27,0 27,0 0,0 24,-3 39,12 14,15 7,72 7,72 0,0 39,8 46,16 7,8 5,42 0,51 -5,10 -39,18 -39,18l1 106 31 37 0 0z"/>
    <path id="path4831" class="fil1" d="M3814 24297c3131,-1 3131,-1 3131,-1m-3131 1l0 0 0 0z"/>
    <g id="g4833">
     <polygon id="path4835" class="fil1" points="6970,24022 6970,24444 6912,24444 6913,24022 "/>
     <path class="fil1" d="M6969 24281l-57 0c-9,0 -15,6 -15,14l0 5c0,8 7,14 15,14l57 0c9,0 15,-6 15,-14l0 -5c0,-8 -7,-14 -15,-14z"/>
     <path class="fil1" d="M6969 24052l-54 0c-9,0 -15,6 -15,14l0 29c0,8 7,14 15,14l54 0c9,0 15,-6 15,-14l0 -29c0,-8 -7,-14 -15,-14z"/>
     <path class="fil1" d="M6955 24022l-27 0c-9,0 -15,6 -15,14l0 92c0,8 7,14 15,14l27 0c9,0 15,-6 15,-14l0 -92c0,-8 -7,-14 -15,-14z"/>
     <path class="fil1" d="M6945 24021l-6 0c-9,0 -15,6 -15,14l0 79c0,8 7,14 15,14l6 0c9,0 15,-6 15,-14l0 -79c0,-8 -7,-14 -15,-14z"/>
    </g>
    <g id="g4845">
     <polygon id="path4847" class="fil1" points="6969,24022 6968,24444 6911,24444 6912,24022 "/>
     <path class="fil1" d="M6968 24281l-57 0c-9,0 -15,6 -15,14l0 5c0,8 7,14 15,14l57 0c9,0 15,-6 15,-14l0 -5c0,-8 -7,-14 -15,-14z"/>
     <path class="fil1" d="M6967 24052l-54 0c-9,0 -15,6 -15,14l0 29c0,8 7,14 15,14l54 0c9,0 15,-6 15,-14l0 -29c0,-8 -7,-14 -15,-14z"/>
     <path class="fil1" d="M6954 24022l-27 0c-9,0 -15,6 -15,14l0 92c0,8 7,14 15,14l27 0c9,0 15,-6 15,-14l0 -92c0,-8 -7,-14 -15,-14z"/>
     <path class="fil1" d="M6944 24021l-6 0c-9,0 -15,6 -15,14l0 79c0,8 7,14 15,14l6 0c9,0 15,-6 15,-14l0 -79c0,-8 -7,-14 -15,-14z"/>
    </g>
    <g id="g4857">
     <polygon id="path4859" class="fil1" points="6622,24022 6621,24444 6564,24444 6565,24022 "/>
     <path class="fil1" d="M6621 24281l-57 0c-9,0 -15,6 -15,14l0 5c0,8 7,14 15,14l57 0c9,0 15,-6 15,-14l0 -5c0,-8 -7,-14 -15,-14z"/>
     <path class="fil1" d="M6620 24052l-54 0c-9,0 -15,6 -15,14l0 29c0,8 7,14 15,14l54 0c9,0 15,-6 15,-14l0 -29c0,-8 -7,-14 -15,-14z"/>
     <path class="fil1" d="M6607 24022l-27 0c-9,0 -15,6 -15,14l0 92c0,8 7,14 15,14l27 0c8,0 15,-6 15,-14l0 -92c0,-8 -7,-14 -15,-14z"/>
     <path class="fil1" d="M6596 24021l-6 0c-9,0 -15,6 -15,14l0 79c0,8 7,14 15,14l6 0c8,0 15,-6 15,-14l0 -79c0,-8 -7,-14 -15,-14z"/>
    </g>
    <g id="g4869">
     <polygon id="path4871" class="fil1" points="6275,24022 6274,24444 6217,24444 6218,24022 "/>
     <path class="fil1" d="M6274 24281l-57 0c-9,0 -15,6 -15,14l0 5c0,8 7,14 15,14l57 0c9,0 15,-6 15,-14l0 -5c0,-8 -7,-14 -15,-14z"/>
     <path class="fil1" d="M6273 24052l-54 0c-9,0 -15,6 -15,14l0 29c0,8 7,14 15,14l54 0c9,0 15,-6 15,-14l0 -29c0,-8 -7,-14 -15,-14z"/>
     <path class="fil1" d="M6260 24022l-27 0c-9,0 -15,6 -15,14l0 92c0,8 7,14 15,14l27 0c9,0 15,-6 15,-14l0 -92c0,-8 -7,-14 -15,-14z"/>
     <path class="fil1" d="M6249 24021l-6 0c-9,0 -15,6 -15,14l0 79c0,8 7,14 15,14l6 0c9,0 15,-6 15,-14l0 -79c0,-8 -7,-14 -15,-14z"/>
    </g>
    <g id="g4881">
     <polygon id="path4883" class="fil1" points="5928,24022 5927,24444 5869,24444 5870,24022 "/>
     <path class="fil1" d="M5927 24281l-57 0c-9,0 -15,6 -15,14l0 5c0,8 7,14 15,14l57 0c9,0 15,-6 15,-14l0 -5c0,-8 -7,-14 -15,-14z"/>
     <path class="fil1" d="M5926 24052l-54 0c-9,0 -15,6 -15,14l0 29c0,8 7,14 15,14l54 0c9,0 15,-6 15,-14l0 -29c0,-8 -7,-14 -15,-14z"/>
     <path class="fil1" d="M5912 24022l-27 0c-9,0 -15,6 -15,14l0 92c0,8 7,14 15,14l27 0c9,0 15,-6 15,-14l0 -92c0,-8 -7,-14 -15,-14z"/>
     <path class="fil1" d="M5902 24021l-6 0c-9,0 -15,6 -15,14l0 79c0,8 7,14 15,14l6 0c9,0 15,-6 15,-14l0 -79c0,-8 -7,-14 -15,-14z"/>
    </g>
    <g id="g4893">
     <polygon id="path4895" class="fil1" points="5580,24022 5580,24444 5522,24444 5523,24022 "/>
     <path class="fil1" d="M5579 24281l-57 0c-9,0 -15,6 -15,14l0 5c0,8 7,14 15,14l57 0c9,0 15,-6 15,-14l0 -5c0,-8 -7,-14 -15,-14z"/>
     <path class="fil1" d="M5579 24052l-54 0c-9,0 -15,6 -15,14l0 29c0,8 7,14 15,14l54 0c9,0 15,-6 15,-14l0 -29c0,-8 -7,-14 -15,-14z"/>
     <path class="fil1" d="M5565 24022l-27 0c-9,0 -15,6 -15,14l0 92c0,8 7,14 15,14l27 0c9,0 15,-6 15,-14l0 -92c0,-8 -7,-14 -15,-14z"/>
     <path class="fil1" d="M5555 24021l-6 0c-9,0 -15,6 -15,14l0 79c0,8 7,14 15,14l6 0c9,0 15,-6 15,-14l0 -79c0,-8 -7,-14 -15,-14z"/>
    </g>
    <g id="g4905">
     <polygon id="path4907" class="fil1" points="5233,24022 5232,24444 5175,24444 5176,24022 "/>
     <path class="fil1" d="M5232 24281l-57 0c-9,0 -15,6 -15,14l0 5c0,8 7,14 15,14l57 0c9,0 15,-6 15,-14l0 -5c0,-8 -7,-14 -15,-14z"/>
     <path class="fil1" d="M5231 24052l-54 0c-9,0 -15,6 -15,14l0 29c0,8 7,14 15,14l54 0c9,0 15,-6 15,-14l0 -29c0,-8 -7,-14 -15,-14z"/>
     <path class="fil1" d="M5218 24022l-27 0c-9,0 -15,6 -15,14l0 92c0,8 7,14 15,14l27 0c9,0 15,-6 15,-14l0 -92c0,-8 -7,-14 -15,-14z"/>
     <path class="fil1" d="M5207 24021l-6 0c-9,0 -15,6 -15,14l0 79c0,8 7,14 15,14l6 0c9,0 15,-6 15,-14l0 -79c0,-8 -7,-14 -15,-14z"/>
    </g>
    <g id="g4917">
     <polygon id="path4919" class="fil1" points="4886,24022 4885,24444 4828,24444 4829,24022 "/>
     <path class="fil1" d="M4885 24281l-57 0c-9,0 -15,6 -15,14l0 5c0,8 7,14 15,14l57 0c9,0 15,-6 15,-14l0 -5c0,-8 -7,-14 -15,-14z"/>
     <path class="fil1" d="M4884 24052l-54 0c-9,0 -15,6 -15,14l0 29c0,8 7,14 15,14l54 0c9,0 15,-6 15,-14l0 -29c0,-8 -7,-14 -15,-14z"/>
     <path class="fil1" d="M4871 24022l-27 0c-9,0 -15,6 -15,14l0 92c0,8 7,14 15,14l27 0c9,0 15,-6 15,-14l0 -92c0,-8 -7,-14 -15,-14z"/>
     <path class="fil1" d="M4860 24021l-6 0c-9,0 -15,6 -15,14l0 79c0,8 7,14 15,14l6 0c9,0 15,-6 15,-14l0 -79c0,-8 -7,-14 -15,-14z"/>
    </g>
    <g id="g4929">
     <polygon id="path4931" class="fil1" points="4539,24022 4538,24444 4481,24444 4481,24022 "/>
     <path class="fil1" d="M4538 24281l-57 0c-9,0 -15,6 -15,14l0 5c0,8 7,14 15,14l57 0c9,0 15,-6 15,-14l0 -5c0,-8 -7,-14 -15,-14z"/>
     <path class="fil1" d="M4537 24052l-54 0c-9,0 -15,6 -15,14l0 29c0,8 7,14 15,14l54 0c9,0 15,-6 15,-14l0 -29c0,-8 -7,-14 -15,-14z"/>
     <path class="fil1" d="M4524 24022l-27 0c-9,0 -15,6 -15,14l0 92c0,8 7,14 15,14l27 0c9,0 15,-6 15,-14l0 -92c0,-8 -7,-14 -15,-14z"/>
     <path class="fil1" d="M4513 24021l-6 0c-9,0 -15,6 -15,14l0 79c0,8 7,14 15,14l6 0c9,0 15,-6 15,-14l0 -79c0,-8 -7,-14 -15,-14z"/>
    </g>
    <g id="g4941">
     <polygon id="path4943" class="fil1" points="4192,24022 4191,24444 4133,24444 4134,24022 "/>
     <path class="fil1" d="M4191 24281l-57 0c-9,0 -15,6 -15,14l0 5c0,8 7,14 15,14l57 0c9,0 15,-6 15,-14l0 -5c0,-8 -7,-14 -15,-14z"/>
     <path class="fil1" d="M4190 24052l-54 0c-9,0 -15,6 -15,14l0 29c0,8 7,14 15,14l54 0c9,0 15,-6 15,-14l0 -29c0,-8 -7,-14 -15,-14z"/>
     <path class="fil1" d="M4176 24022l-27 0c-9,0 -15,6 -15,14l0 92c0,8 7,14 15,14l27 0c9,0 15,-6 15,-14l0 -92c0,-8 -7,-14 -15,-14z"/>
     <path class="fil1" d="M4166 24021l-6 0c-9,0 -15,6 -15,14l0 79c0,8 7,14 15,14l6 0c8,0 15,-6 15,-14l0 -79c0,-8 -7,-14 -15,-14z"/>
    </g>
    <path id="path4959" class="fil1" d="M5235 19094l1731 0m-1731 0l0 0 0 0z"/>
    <polygon id="path4975" class="fil1" points="1595,28405 1559,28358 1846,28190 3345,28190 3515,28356 3473,28402 1595,28405 "/>
    <path id="path4979" class="fil1" d="M6916 4292c0,0 -109,20 -193,79 -168,132 -208,234 -268,373 -38,98 -60,211 -60,211l126 -3c0,0 43,-152 72,-219 29,-67 99,-182 170,-252 72,-70 155,-86 155,-86l-2 -103 0 0 0 0z"/>
    <rect id="rect4612" class="fil1" x="7462" y="5031" width="114" height="243"/>
    <g id="rect4592">
     <polygon class="fil0" points="6204,5335 6204,5491 6224,5491 7660,5491 7679,5491 7679,5335 7660,5335 6224,5335 "/>
     <polygon class="fil1" points="6204,5335 6204,5491 6224,5491 7660,5491 7679,5491 7679,5335 7660,5335 6224,5335 "/>
    </g>
    <polygon id="rect4589" class="fil1" points="6184,5473 6184,5731 6204,5731 7679,5731 7699,5731 7699,5473 7679,5473 6204,5473 "/>
    <path id="path5013" class="fil1" d="M6502 5729l-268 4c0,0 69,27 149,175 81,148 118,489 118,489l0 -668z"/>
    <path id="path4793" class="fil1" d="M3569 25088l3130 3 243 -2 0 2 0 7 0 22 -459 0 -320 49 -8 -16c-9,-18 -28,-29 -50,-34l-1 0 -61 0c-2,1 -5,1 -7,2 -40,11 -68,52 -60,79l4 17 -48 12 -22 -51c-16,-31 -36,-50 -58,-58l-72 0c-4,1 -8,2 -12,3 -53,20 -57,71 -42,107l21 49 -48 14 -42 -96c-29,-68 -108,-80 -152,-64 -38,14 -77,78 -50,133l47 96 -48 17 -102 -206c-25,-50 -90,-56 -130,-38 -38,17 -68,73 -40,121l109 196 -51 23 -137 -253c-36,-66 -114,-69 -157,-42 -42,25 -65,87 -24,151l151 236 -43 25 -77 -114c-31,-45 -108,-56 -149,-25 -41,31 -56,86 -21,136l74 104 -41 32 -16 -23c-21,-30 -79,-34 -122,-4 -43,30 -39,86 -22,107l16 21 -183 157 7 -29 446 -835 -1372 -1 0 -30 0 0 0 0z"/>
    <path id="path3841" class="fil1" d="M10315 25088l-3130 3 -243 -2 0 2 0 7 0 22 459 0 320 49 8 -16c9,-18 28,-29 50,-34l1 0 61 0c3,0 5,1 7,2 40,11 68,52 60,79l-4 17 48 12 22 -51c16,-31 36,-50 58,-58l72 0c4,1 8,2 12,3 53,20 57,71 42,107l-21 49 48 14 42 -96c29,-68 108,-80 152,-64 38,14 77,78 50,133l-47 96 48 17 102 -206c25,-50 90,-56 130,-38 38,17 68,73 40,122l-109 196 51 23 137 -253c36,-66 114,-69 157,-42 42,25 65,87 24,151l-151 236 43 25 77 -114c31,-45 108,-56 149,-25 41,31 56,86 21,136l-74 104 41 32 16 -23c21,-30 79,-34 122,-4 43,30 39,86 22,107l-16 21 183 157 -7 -29 -446 -835 1372 -1 0 -30 0 0 0 0z"/>
    <path id="path3803" class="fil1" d="M6943 25082l0 1c-49,1 -281,8 -403,21 -123,13 -245,33 -365,57 -143,29 -285,65 -425,107 -128,39 -257,80 -381,134 -126,55 -245,121 -361,189 -112,66 -225,133 -328,214 -127,99 -344,320 -344,320l42 36c0,0 219,-221 339,-315 100,-77 211,-144 323,-210 116,-68 232,-132 354,-186 120,-52 246,-93 374,-131 138,-41 279,-76 421,-105 119,-24 239,-45 359,-57 116,-12 345,-21 395,-22l0 2c0,0 267,7 395,21 120,13 240,33 359,57 142,29 283,64 421,105 128,38 254,79 374,131 122,53 239,118 354,186 112,65 223,132 323,210 120,93 339,315 339,315l42 -36c0,0 -217,-220 -344,-320 -103,-80 -216,-148 -328,-214 -116,-68 -236,-134 -361,-189 -124,-54 -253,-95 -381,-134 -140,-42 -282,-77 -425,-107 -120,-24 -242,-44 -365,-57 -120,-13 -319,-19 -367,-20l0 -2c0,0 -16,1 -18,1 -1,0 -15,-1 -15,-1l0 0 0 0z"/>
    <path id="path3605" class="fil1" d="M8642 24443l-39 57 1944 3672 10 25 1453 -3 -52 -49 -1935 -3680 -39 -22 -1342 0zm69 80l1246 0 1893 3600 -1238 -8 -1902 -3592 0 0z"/>
    <polygon id="path3809" class="fil1" points="6942,24471 6941,24471 3806,24471 3806,24431 6941,24431 6942,24431 10077,24431 10077,24471 "/>
    <rect id="rect4600" class="fil1" x="6955" y="3279" width="87.1699" height="230.221"/>
    <rect id="rect4602" class="fil1" x="6955" y="3572" width="87.1699" height="230.221"/>
    <rect id="rect4604" class="fil1" x="6955" y="3864" width="87.1699" height="230.221"/>
    <rect id="rect4606" class="fil1" x="6955" y="4157" width="87.1699" height="230.221"/>
    <path id="svg_5" class="fil1" d="M7291 25086l29 -26 -354 -288 -30 26 355 288 0 0zm2433 -45l30 -26 -712 -570 -30 26 712 570zm-1054 18l30 -26 -699 -570 -30 26 699 570 0 0 0 0zm-339 4l30 -26 -708 -569 -30 26 708 569 0 0zm-347 6l29 -26 -707 -569 -30 26 708 569zm-348 6l30 -26 -707 -569 -30 26 707 569 0 0zm1737 -32l30 -26 -708 -567 -30 26 708 567zm-351 6l30 -26 -703 -567 -30 26 703 567zm1051 -24l30 -26 -713 -562 -29 27 712 561zm-12 -283l30 -27 -356 -281 -29 26 355 282 0 0z"/>
   </g>
  </g>
 </g>
</svg>
